<svg width="2335" height="1184" viewBox="0 0 2335 1184" fill="none" xmlns="http://www.w3.org/2000/svg">
<path d="M319.474 264.727V37.4545H372.031V54.8551H339.361V247.327H372.031V264.727H319.474ZM463.318 60.1818V242H441.301V83.2642H440.235L395.846 112.739V90.3665L441.301 60.1818H463.318ZM536.471 217.142L535.051 226.73C534.044 233.477 532.506 240.698 530.434 248.392C528.422 256.086 526.321 263.336 524.131 270.143C521.941 276.949 520.136 282.365 518.715 286.389H502.735C503.505 282.601 504.511 277.6 505.754 271.386C506.997 265.171 508.24 258.217 509.482 250.523C510.785 242.888 511.85 235.075 512.678 227.085L513.744 217.142H536.471ZM704.551 244.486C691.175 244.486 679.782 240.846 670.371 233.566C660.961 226.227 653.77 215.603 648.798 201.695C643.826 187.727 641.341 170.859 641.341 151.091C641.341 131.441 643.826 114.662 648.798 100.754C653.829 86.7857 661.049 76.1323 670.46 68.7933C679.93 61.3951 691.293 57.696 704.551 57.696C717.808 57.696 729.142 61.3951 738.553 68.7933C748.023 76.1323 755.243 86.7857 760.215 100.754C765.246 114.662 767.761 131.441 767.761 151.091C767.761 170.859 765.275 187.727 760.304 201.695C755.332 215.603 748.141 226.227 738.73 233.566C729.32 240.846 717.927 244.486 704.551 244.486ZM704.551 224.955C717.808 224.955 728.107 218.562 735.446 205.778C742.785 192.994 746.454 174.765 746.454 151.091C746.454 135.348 744.767 121.942 741.394 110.874C738.079 99.8066 733.285 91.3726 727.012 85.5724C720.797 79.7723 713.31 76.8722 704.551 76.8722C691.412 76.8722 681.143 83.353 673.745 96.3146C666.346 109.217 662.647 127.476 662.647 151.091C662.647 166.834 664.305 180.21 667.619 191.219C670.933 202.227 675.698 210.602 681.912 216.343C688.186 222.084 695.732 224.955 704.551 224.955ZM826.754 217.142L825.334 226.73C824.328 233.477 822.789 240.698 820.717 248.392C818.705 256.086 816.604 263.336 814.414 270.143C812.224 276.949 810.419 282.365 808.999 286.389H793.018C793.788 282.601 794.794 277.6 796.037 271.386C797.28 265.171 798.523 258.217 799.766 250.523C801.068 242.888 802.133 235.075 802.962 227.085L804.027 217.142H826.754ZM935.53 242V226.02L995.544 160.324C1002.59 152.63 1008.39 145.942 1012.94 140.26C1017.5 134.519 1020.88 129.133 1023.07 124.102C1025.31 119.012 1026.44 113.686 1026.44 108.122C1026.44 101.73 1024.9 96.1963 1021.82 91.5206C1018.8 86.8449 1014.66 83.2346 1009.39 80.6896C1004.13 78.1446 998.208 76.8722 991.638 76.8722C984.654 76.8722 978.558 78.3222 973.35 81.2223C968.2 84.0632 964.205 88.0582 961.365 93.2074C958.583 98.3565 957.192 104.393 957.192 111.318H936.24C936.24 100.665 938.696 91.3134 943.609 83.2642C948.521 75.215 955.209 68.9413 963.673 64.4432C972.195 59.9451 981.754 57.696 992.348 57.696C1003 57.696 1012.44 59.9451 1020.67 64.4432C1028.9 68.9413 1035.35 75.0078 1040.02 82.6428C1044.7 90.2777 1047.04 98.7708 1047.04 108.122C1047.04 114.81 1045.82 121.35 1043.4 127.742C1041.03 134.075 1036.89 141.148 1030.97 148.96C1025.11 156.714 1016.97 166.183 1006.55 177.369L965.715 221.048V222.469H1050.23V242H935.53ZM1118.5 217.142L1117.08 226.73C1116.08 233.477 1114.54 240.698 1112.47 248.392C1110.45 256.086 1108.35 263.336 1106.16 270.143C1103.97 276.949 1102.17 282.365 1100.75 286.389H1084.77C1085.54 282.601 1086.54 277.6 1087.78 271.386C1089.03 265.171 1090.27 258.217 1091.51 250.523C1092.82 242.888 1093.88 235.075 1094.71 227.085L1095.78 217.142H1118.5ZM1288.71 244.486C1276.99 244.486 1266.55 242.473 1257.37 238.449C1248.26 234.424 1241.01 228.831 1235.62 221.67C1230.3 214.449 1227.4 206.074 1226.92 196.545H1249.3C1249.77 202.405 1251.78 207.465 1255.33 211.727C1258.88 215.929 1263.53 219.184 1269.27 221.492C1275.01 223.8 1281.37 224.955 1288.36 224.955C1296.17 224.955 1303.09 223.593 1309.13 220.871C1315.17 218.148 1319.9 214.36 1323.34 209.507C1326.77 204.654 1328.49 199.031 1328.49 192.639C1328.49 185.951 1326.83 180.062 1323.51 174.972C1320.2 169.823 1315.35 165.799 1308.95 162.898C1302.56 159.998 1294.75 158.548 1285.52 158.548H1270.96V139.017H1285.52C1292.74 139.017 1299.07 137.715 1304.52 135.111C1310.02 132.507 1314.31 128.837 1317.39 124.102C1320.52 119.367 1322.09 113.804 1322.09 107.412C1322.09 101.257 1320.73 95.9003 1318.01 91.343C1315.29 86.7857 1311.44 83.2346 1306.47 80.6896C1301.56 78.1446 1295.76 76.8722 1289.07 76.8722C1282.79 76.8722 1276.88 78.0263 1271.31 80.3345C1265.81 82.5836 1261.31 85.8684 1257.82 90.1889C1254.33 94.4503 1252.43 99.5994 1252.14 105.636H1230.83C1231.18 96.1075 1234.05 87.7623 1239.44 80.6008C1244.83 73.3802 1251.87 67.7576 1260.57 63.733C1269.33 59.7083 1278.95 57.696 1289.42 57.696C1300.67 57.696 1310.32 59.9747 1318.36 64.532C1326.41 69.0301 1332.6 74.9782 1336.92 82.3764C1341.24 89.7746 1343.4 97.7647 1343.4 106.347C1343.4 116.586 1340.71 125.316 1335.32 132.536C1329.99 139.757 1322.74 144.758 1313.57 147.54V148.96C1325.05 150.854 1334.02 155.737 1340.47 163.609C1346.92 171.421 1350.15 181.098 1350.15 192.639C1350.15 202.523 1347.45 211.401 1342.07 219.273C1336.74 227.085 1329.46 233.241 1320.23 237.739C1311 242.237 1300.49 244.486 1288.71 244.486ZM1412.45 217.142L1411.03 226.73C1410.02 233.477 1408.48 240.698 1406.41 248.392C1404.4 256.086 1402.3 263.336 1400.11 270.143C1397.92 276.949 1396.11 282.365 1394.69 286.389H1378.71C1379.48 282.601 1380.49 277.6 1381.73 271.386C1382.97 265.171 1384.22 258.217 1385.46 250.523C1386.76 242.888 1387.83 235.075 1388.66 227.085L1389.72 217.142H1412.45ZM1580.53 244.486C1567.15 244.486 1555.76 240.846 1546.35 233.566C1536.94 226.227 1529.75 215.603 1524.77 201.695C1519.8 187.727 1517.32 170.859 1517.32 151.091C1517.32 131.441 1519.8 114.662 1524.77 100.754C1529.81 86.7857 1537.03 76.1323 1546.44 68.7933C1555.91 61.3951 1567.27 57.696 1580.53 57.696C1593.78 57.696 1605.12 61.3951 1614.53 68.7933C1624 76.1323 1631.22 86.7857 1636.19 100.754C1641.22 114.662 1643.74 131.441 1643.74 151.091C1643.74 170.859 1641.25 187.727 1636.28 201.695C1631.31 215.603 1624.12 226.227 1614.71 233.566C1605.3 240.846 1593.9 244.486 1580.53 244.486ZM1580.53 224.955C1593.78 224.955 1604.08 218.562 1611.42 205.778C1618.76 192.994 1622.43 174.765 1622.43 151.091C1622.43 135.348 1620.74 121.942 1617.37 110.874C1614.06 99.8066 1609.26 91.3726 1602.99 85.5724C1596.77 79.7723 1589.29 76.8722 1580.53 76.8722C1567.39 76.8722 1557.12 83.353 1549.72 96.3146C1542.32 109.217 1538.62 127.476 1538.62 151.091C1538.62 166.834 1540.28 180.21 1543.6 191.219C1546.91 202.227 1551.67 210.602 1557.89 216.343C1564.16 222.084 1571.71 224.955 1580.53 224.955ZM1702.73 217.142L1701.31 226.73C1700.3 233.477 1698.77 240.698 1696.69 248.392C1694.68 256.086 1692.58 263.336 1690.39 270.143C1688.2 276.949 1686.4 282.365 1684.98 286.389H1669C1669.76 282.601 1670.77 277.6 1672.01 271.386C1673.26 265.171 1674.5 258.217 1675.74 250.523C1677.04 242.888 1678.11 235.075 1678.94 227.085L1680 217.142H1702.73ZM1807.25 204.713V186.602L1887.15 60.1818H1900.28V88.2358H1891.41L1831.04 183.761V185.182H1938.64V204.713H1807.25ZM1892.83 242V199.209V190.775V60.1818H1913.78V242H1892.83ZM2014.17 37.4545V264.727H1961.61V247.327H1994.28V54.8551H1961.61V37.4545H2014.17Z" fill="#006CA9"/>
<path d="M29.4744 1145.73V918.455H82.0312V935.855H49.3608V1128.33H82.0312V1145.73H29.4744ZM173.318 941.182V1123H151.301V964.264H150.235L105.846 993.739V971.366L151.301 941.182H173.318ZM246.471 1098.14L245.051 1107.73C244.044 1114.48 242.506 1121.7 240.434 1129.39C238.422 1137.09 236.321 1144.34 234.131 1151.14C231.941 1157.95 230.136 1163.36 228.715 1167.39H212.735C213.505 1163.6 214.511 1158.6 215.754 1152.39C216.997 1146.17 218.24 1139.22 219.482 1131.52C220.785 1123.89 221.85 1116.08 222.678 1108.09L223.744 1098.14H246.471ZM414.551 1125.49C401.175 1125.49 389.782 1121.85 380.371 1114.57C370.961 1107.23 363.77 1096.6 358.798 1082.69C353.826 1068.73 351.341 1051.86 351.341 1032.09C351.341 1012.44 353.826 995.662 358.798 981.754C363.829 967.786 371.049 957.132 380.46 949.793C389.93 942.395 401.293 938.696 414.551 938.696C427.808 938.696 439.142 942.395 448.553 949.793C458.023 957.132 465.243 967.786 470.215 981.754C475.246 995.662 477.761 1012.44 477.761 1032.09C477.761 1051.86 475.275 1068.73 470.304 1082.69C465.332 1096.6 458.141 1107.23 448.73 1114.57C439.32 1121.85 427.927 1125.49 414.551 1125.49ZM414.551 1105.95C427.808 1105.95 438.107 1099.56 445.446 1086.78C452.785 1073.99 456.454 1055.77 456.454 1032.09C456.454 1016.35 454.767 1002.94 451.394 991.874C448.079 980.807 443.285 972.373 437.012 966.572C430.797 960.772 423.31 957.872 414.551 957.872C401.412 957.872 391.143 964.353 383.745 977.315C376.346 990.217 372.647 1008.48 372.647 1032.09C372.647 1047.83 374.305 1061.21 377.619 1072.22C380.933 1083.23 385.698 1091.6 391.912 1097.34C398.186 1103.08 405.732 1105.95 414.551 1105.95ZM536.754 1098.14L535.334 1107.73C534.328 1114.48 532.789 1121.7 530.717 1129.39C528.705 1137.09 526.604 1144.34 524.414 1151.14C522.224 1157.95 520.419 1163.36 518.999 1167.39H503.018C503.788 1163.6 504.794 1158.6 506.037 1152.39C507.28 1146.17 508.523 1139.22 509.766 1131.52C511.068 1123.89 512.133 1116.08 512.962 1108.09L514.027 1098.14H536.754ZM704.834 1125.49C691.458 1125.49 680.065 1121.85 670.654 1114.57C661.244 1107.23 654.053 1096.6 649.081 1082.69C644.11 1068.73 641.624 1051.86 641.624 1032.09C641.624 1012.44 644.11 995.662 649.081 981.754C654.112 967.786 661.333 957.132 670.743 949.793C680.213 942.395 691.576 938.696 704.834 938.696C718.092 938.696 729.426 942.395 738.836 949.793C748.306 957.132 755.526 967.786 760.498 981.754C765.529 995.662 768.044 1012.44 768.044 1032.09C768.044 1051.86 765.558 1068.73 760.587 1082.69C755.615 1096.6 748.424 1107.23 739.014 1114.57C729.603 1121.85 718.21 1125.49 704.834 1125.49ZM704.834 1105.95C718.092 1105.95 728.39 1099.56 735.729 1086.78C743.068 1073.99 746.737 1055.77 746.737 1032.09C746.737 1016.35 745.051 1002.94 741.677 991.874C738.363 980.807 733.569 972.373 727.295 966.572C721.08 960.772 713.593 957.872 704.834 957.872C691.695 957.872 681.426 964.353 674.028 977.315C666.63 990.217 662.931 1008.48 662.931 1032.09C662.931 1047.83 664.588 1061.21 667.902 1072.22C671.217 1083.23 675.981 1091.6 682.195 1097.34C688.469 1103.08 696.015 1105.95 704.834 1105.95ZM827.037 1098.14L825.617 1107.73C824.611 1114.48 823.072 1121.7 821.001 1129.39C818.988 1137.09 816.887 1144.34 814.697 1151.14C812.507 1157.95 810.702 1163.36 809.282 1167.39H793.302C794.071 1163.6 795.077 1158.6 796.32 1152.39C797.563 1146.17 798.806 1139.22 800.049 1131.52C801.351 1123.89 802.416 1116.08 803.245 1108.09L804.31 1098.14H827.037ZM935.813 1123V1107.02L995.827 1041.32C1002.87 1033.63 1008.67 1026.94 1013.23 1021.26C1017.79 1015.52 1021.16 1010.13 1023.35 1005.1C1025.6 1000.01 1026.72 994.686 1026.72 989.122C1026.72 982.73 1025.18 977.196 1022.11 972.521C1019.09 967.845 1014.94 964.235 1009.68 961.69C1004.41 959.145 998.491 957.872 991.921 957.872C984.937 957.872 978.841 959.322 973.633 962.222C968.484 965.063 964.489 969.058 961.648 974.207C958.866 979.357 957.475 985.393 957.475 992.318H936.523C936.523 981.665 938.98 972.313 943.892 964.264C948.804 956.215 955.492 949.941 963.956 945.443C972.479 940.945 982.037 938.696 992.631 938.696C1003.28 938.696 1012.72 940.945 1020.95 945.443C1029.18 949.941 1035.63 956.008 1040.31 963.643C1044.98 971.278 1047.32 979.771 1047.32 989.122C1047.32 995.81 1046.11 1002.35 1043.68 1008.74C1041.31 1015.08 1037.17 1022.15 1031.25 1029.96C1025.39 1037.71 1017.25 1047.18 1006.84 1058.37L965.998 1102.05V1103.47H1050.51V1123H935.813ZM1118.79 1098.14L1117.37 1107.73C1116.36 1114.48 1114.82 1121.7 1112.75 1129.39C1110.74 1137.09 1108.64 1144.34 1106.45 1151.14C1104.26 1157.95 1102.45 1163.36 1101.03 1167.39H1085.05C1085.82 1163.6 1086.83 1158.6 1088.07 1152.39C1089.31 1146.17 1090.55 1139.22 1091.8 1131.52C1093.1 1123.89 1094.16 1116.08 1094.99 1108.09L1096.06 1098.14H1118.79ZM1289 1125.49C1277.28 1125.49 1266.83 1123.47 1257.66 1119.45C1248.54 1115.42 1241.29 1109.83 1235.91 1102.67C1230.58 1095.45 1227.68 1087.07 1227.21 1077.55H1249.58C1250.05 1083.4 1252.06 1088.47 1255.62 1092.73C1259.17 1096.93 1263.81 1100.18 1269.55 1102.49C1275.29 1104.8 1281.66 1105.95 1288.64 1105.95C1296.45 1105.95 1303.38 1104.59 1309.41 1101.87C1315.45 1099.15 1320.19 1095.36 1323.62 1090.51C1327.05 1085.65 1328.77 1080.03 1328.77 1073.64C1328.77 1066.95 1327.11 1061.06 1323.8 1055.97C1320.48 1050.82 1315.63 1046.8 1309.24 1043.9C1302.85 1041 1295.03 1039.55 1285.8 1039.55H1271.24V1020.02H1285.8C1293.02 1020.02 1299.35 1018.71 1304.8 1016.11C1310.3 1013.51 1314.59 1009.84 1317.67 1005.1C1320.81 1000.37 1322.38 994.804 1322.38 988.412C1322.38 982.257 1321.02 976.9 1318.29 972.343C1315.57 967.786 1311.72 964.235 1306.75 961.69C1301.84 959.145 1296.04 957.872 1289.35 957.872C1283.08 957.872 1277.16 959.026 1271.6 961.335C1266.09 963.584 1261.59 966.868 1258.1 971.189C1254.61 975.45 1252.72 980.599 1252.42 986.636H1231.11C1231.47 977.107 1234.34 968.762 1239.72 961.601C1245.11 954.38 1252.15 948.758 1260.85 944.733C1269.61 940.708 1279.23 938.696 1289.71 938.696C1300.95 938.696 1310.6 940.975 1318.65 945.532C1326.7 950.03 1332.88 955.978 1337.2 963.376C1341.52 970.775 1343.68 978.765 1343.68 987.347C1343.68 997.586 1340.99 1006.32 1335.6 1013.54C1330.28 1020.76 1323.03 1025.76 1313.85 1028.54V1029.96C1325.34 1031.85 1334.3 1036.74 1340.75 1044.61C1347.2 1052.42 1350.43 1062.1 1350.43 1073.64C1350.43 1083.52 1347.74 1092.4 1342.35 1100.27C1337.03 1108.09 1329.75 1114.24 1320.51 1118.74C1311.28 1123.24 1300.77 1125.49 1289 1125.49ZM1412.73 1098.14L1411.31 1107.73C1410.3 1114.48 1408.77 1121.7 1406.69 1129.39C1404.68 1137.09 1402.58 1144.34 1400.39 1151.14C1398.2 1157.95 1396.4 1163.36 1394.98 1167.39H1379C1379.76 1163.6 1380.77 1158.6 1382.01 1152.39C1383.26 1146.17 1384.5 1139.22 1385.74 1131.52C1387.04 1123.89 1388.11 1116.08 1388.94 1108.09L1390 1098.14H1412.73ZM1580.81 1125.49C1567.43 1125.49 1556.04 1121.85 1546.63 1114.57C1537.22 1107.23 1530.03 1096.6 1525.06 1082.69C1520.09 1068.73 1517.6 1051.86 1517.6 1032.09C1517.6 1012.44 1520.09 995.662 1525.06 981.754C1530.09 967.786 1537.31 957.132 1546.72 949.793C1556.19 942.395 1567.55 938.696 1580.81 938.696C1594.07 938.696 1605.4 942.395 1614.81 949.793C1624.28 957.132 1631.5 967.786 1636.47 981.754C1641.51 995.662 1644.02 1012.44 1644.02 1032.09C1644.02 1051.86 1641.53 1068.73 1636.56 1082.69C1631.59 1096.6 1624.4 1107.23 1614.99 1114.57C1605.58 1121.85 1594.19 1125.49 1580.81 1125.49ZM1580.81 1105.95C1594.07 1105.95 1604.37 1099.56 1611.71 1086.78C1619.04 1073.99 1622.71 1055.77 1622.71 1032.09C1622.71 1016.35 1621.03 1002.94 1617.65 991.874C1614.34 980.807 1609.55 972.373 1603.27 966.572C1597.06 960.772 1589.57 957.872 1580.81 957.872C1567.67 957.872 1557.4 964.353 1550 977.315C1542.61 990.217 1538.91 1008.48 1538.91 1032.09C1538.91 1047.83 1540.56 1061.21 1543.88 1072.22C1547.19 1083.23 1551.96 1091.6 1558.17 1097.34C1564.45 1103.08 1571.99 1105.95 1580.81 1105.95ZM1703.01 1098.14L1701.59 1107.73C1700.59 1114.48 1699.05 1121.7 1696.98 1129.39C1694.96 1137.09 1692.86 1144.34 1690.67 1151.14C1688.48 1157.95 1686.68 1163.36 1685.26 1167.39H1669.28C1670.05 1163.6 1671.05 1158.6 1672.3 1152.39C1673.54 1146.17 1674.78 1139.22 1676.03 1131.52C1677.33 1123.89 1678.39 1116.08 1679.22 1108.09L1680.29 1098.14H1703.01ZM1871.09 1125.49C1857.72 1125.49 1846.32 1121.85 1836.91 1114.57C1827.5 1107.23 1820.31 1096.6 1815.34 1082.69C1810.37 1068.73 1807.88 1051.86 1807.88 1032.09C1807.88 1012.44 1810.37 995.662 1815.34 981.754C1820.37 967.786 1827.59 957.132 1837 949.793C1846.47 942.395 1857.84 938.696 1871.09 938.696C1884.35 938.696 1895.69 942.395 1905.1 949.793C1914.57 957.132 1921.79 967.786 1926.76 981.754C1931.79 995.662 1934.3 1012.44 1934.3 1032.09C1934.3 1051.86 1931.82 1068.73 1926.85 1082.69C1921.88 1096.6 1914.68 1107.23 1905.27 1114.57C1895.86 1121.85 1884.47 1125.49 1871.09 1125.49ZM1871.09 1105.95C1884.35 1105.95 1894.65 1099.56 1901.99 1086.78C1909.33 1073.99 1913 1055.77 1913 1032.09C1913 1016.35 1911.31 1002.94 1907.94 991.874C1904.62 980.807 1899.83 972.373 1893.55 966.572C1887.34 960.772 1879.85 957.872 1871.09 957.872C1857.95 957.872 1847.69 964.353 1840.29 977.315C1832.89 990.217 1829.19 1008.48 1829.19 1032.09C1829.19 1047.83 1830.85 1061.21 1834.16 1072.22C1837.48 1083.23 1842.24 1091.6 1848.46 1097.34C1854.73 1103.08 1862.28 1105.95 1871.09 1105.95ZM1993.3 1098.14L1991.88 1107.73C1990.87 1114.48 1989.33 1121.7 1987.26 1129.39C1985.25 1137.09 1983.15 1144.34 1980.96 1151.14C1978.77 1157.95 1976.96 1163.36 1975.54 1167.39H1959.56C1960.33 1163.6 1961.34 1158.6 1962.58 1152.39C1963.82 1146.17 1965.07 1139.22 1966.31 1131.52C1967.61 1123.89 1968.68 1116.08 1969.5 1108.09L1970.57 1098.14H1993.3ZM2097.81 1085.71V1067.6L2177.71 941.182H2190.85V969.236H2181.97L2121.6 1064.76V1066.18H2229.2V1085.71H2097.81ZM2183.39 1123V1080.21V1071.77V941.182H2204.35V1123H2183.39ZM2304.73 918.455V1145.73H2252.18V1128.33H2284.85V935.855H2252.18V918.455H2304.73Z" fill="#FA8F00"/>
<path d="M181.019 883.742C182.533 887.597 186.886 889.495 190.742 887.981L253.569 863.304C257.425 861.79 259.323 857.437 257.808 853.581C256.294 849.726 251.941 847.828 248.086 849.342L192.239 871.277L170.304 815.431C168.79 811.575 164.437 809.677 160.581 811.192C156.726 812.706 154.828 817.059 156.342 820.914L181.019 883.742ZM433.125 300.003L181.125 878.003L194.875 883.997L446.875 305.997L433.125 300.003Z" fill="#82D1F5"/>
<path d="M1293.7 886.309C1296.63 889.238 1301.37 889.238 1304.3 886.309L1352.03 838.58C1354.96 835.651 1354.96 830.902 1352.03 827.973C1349.1 825.044 1344.36 825.044 1341.43 827.973L1299 870.399L1256.57 827.973C1253.64 825.044 1248.9 825.044 1245.97 827.973C1243.04 830.902 1243.04 835.651 1245.97 838.58L1293.7 886.309ZM1291.5 302.992V881.006H1306.5V302.992H1291.5Z" fill="#82D1F5"/>
<path d="M432.947 883.55C434.356 887.446 438.655 889.462 442.55 888.053L506.028 865.099C509.923 863.691 511.939 859.391 510.53 855.496C509.122 851.601 504.822 849.585 500.927 850.993L444.503 871.397L424.099 814.972C422.691 811.077 418.391 809.061 414.496 810.47C410.601 811.878 408.585 816.178 409.993 820.073L432.947 883.55ZM704.209 299.816L433.209 877.816L446.791 884.184L717.791 306.184L704.209 299.816Z" fill="#82D1F5"/>
<path d="M1864.55 888.088C1868.46 889.442 1872.73 887.366 1874.09 883.451L1896.15 819.656C1897.5 815.742 1895.42 811.471 1891.51 810.117C1887.59 808.764 1883.32 810.84 1881.97 814.755L1862.36 871.461L1805.66 851.855C1801.74 850.501 1797.47 852.578 1796.12 856.492C1794.76 860.407 1796.84 864.678 1800.75 866.031L1864.55 888.088ZM1579.25 306.279L1860.25 884.279L1873.75 877.721L1592.75 299.721L1579.25 306.279Z" fill="#82D1F5"/>
<path d="M705.697 886.317C708.626 889.246 713.374 889.246 716.303 886.317L764.033 838.587C766.962 835.658 766.962 830.91 764.033 827.981C761.104 825.052 756.355 825.052 753.426 827.981L711 870.407L668.574 827.981C665.645 825.052 660.896 825.052 657.967 827.981C655.038 830.91 655.038 835.658 657.967 838.587L705.697 886.317ZM703.5 303L703.5 881.014H718.5L718.5 303H703.5Z" fill="#82D1F5"/>
<path d="M1580.7 886.317C1583.63 889.246 1588.37 889.246 1591.3 886.317L1639.03 838.587C1641.96 835.658 1641.96 830.91 1639.03 827.981C1636.1 825.052 1631.36 825.052 1628.43 827.981L1586 870.407L1543.57 827.981C1540.64 825.052 1535.9 825.052 1532.97 827.981C1530.04 830.91 1530.04 835.658 1532.97 838.587L1580.7 886.317ZM1578.5 303V881.014H1593.5V303H1578.5Z" fill="#82D1F5"/>
<path d="M987.697 886.303C990.626 889.232 995.374 889.232 998.303 886.303L1046.03 838.574C1048.96 835.645 1048.96 830.896 1046.03 827.967C1043.1 825.038 1038.36 825.038 1035.43 827.967L993 870.393L950.574 827.967C947.645 825.038 942.896 825.038 939.967 827.967C937.038 830.896 937.038 835.645 939.967 838.574L987.697 886.303ZM985.5 303V881H1000.5V303H985.5Z" fill="#82D1F5"/>
<path d="M2151.26 887.981C2155.11 889.495 2159.47 887.597 2160.98 883.742L2185.66 820.914C2187.17 817.059 2185.27 812.706 2181.42 811.192C2177.56 809.677 2173.21 811.575 2171.7 815.431L2149.76 871.277L2093.91 849.342C2090.06 847.828 2085.71 849.726 2084.19 853.581C2082.68 857.437 2084.58 861.79 2088.43 863.304L2151.26 887.981ZM1895.13 305.997L2147.12 883.997L2160.87 878.003L1908.87 300.003L1895.13 305.997Z" fill="#82D1F5"/>
</svg>
